# xmcd
#
# Track frame offsets: 
#        150
#        21024
#        40112
#        60773
#        80299
#        95258
#        114136
#        130521
#        148302
#        169809
#        191568
#
# Disc length: 2785 seconds
#
# Revision: 0
# Processed by: cddbd v1.5.2PL0 Copyright (c) Steve Scherf et al.
# Submitted via: ExactAudioCopy v0.99pb5
#
DISCID=7e0adf0b
DTITLE=Family Style - Walk
DYEAR=2003
DGENRE=Blues
TTITLE0=My Baby She's Grand
TTITLE1=Brand New Blues
TTITLE2=Get Rid Of You
TTITLE3=Body Painter
TTITLE4=Jack Daniel
TTITLE5=Easy
TTITLE6=Walking Blues
TTITLE7=Pocket Full Of Nothin'
TTITLE8=Chaplin
TTITLE9=Someone To Blues About
TTITLE10=I Walk All Day (Just To Find My Way)
EXTD=
EXTT0=
EXTT1=
EXTT2=
EXTT3=
EXTT4=
EXTT5=
EXTT6=
EXTT7=
EXTT8=
EXTT9=
EXTT10=
PLAYORDER=
